<?xml version="1.0" encoding="UTF-8"?>
<svg id="Capa_2" data-name="Capa 2" xmlns="http://www.w3.org/2000/svg" viewBox="0 0 1024 1024">
  <defs>
    <style>
      .cls-1 {
        fill: #000d4f;
      }

      .cls-2 {
        fill: #ff0742;
      }

      .cls-3 {
        fill: #fff;
      }
    </style>
  </defs>
  <g id="Capa_4" data-name="Capa 4">
    <g>
      <rect class="cls-1" width="1024" height="1024" rx="236.63" ry="236.63"/>
      <g>
        <polygon class="cls-2" points="713.3 251.62 713.3 290.12 751.81 328.63 713.3 367.14 713.3 405.64 790.31 328.63 713.3 251.62"/>
        <g>
          <path class="cls-3" d="M329.73,384.99c-.44,2.61-.87,5.65-.87,7.82,0,13.04,8.26,20.42,21.73,20.42,14.34,0,27.38-3.04,40.42-8.69l-10,61.71c-14.77,6.09-36.5,10.43-59.97,10.43-41.72,0-68.23-26.08-68.23-65.19,0-4.78.44-10.87,1.31-16.08l17.38-99.52h-37.81l10.43-60.41h37.81l12.17-69.53h73.88l-12.17,69.53h61.71l-10.43,60.41h-61.71l-15.65,89.09Z"/>
          <path class="cls-3" d="M431.86,235.49h79.53l25.21,152.97,81.27-152.97h81.7l-139.06,236.84h-73.44l-55.19-236.84Z"/>
        </g>
        <g>
          <path class="cls-2" d="M504.38,531.92c.33,4.3.33,7.94.33,12.9,0,82.04-62.85,131.32-130.66,131.32-74.1,0-130-57.89-130-128.34s58.88-126.03,130.99-126.03c58.55,0,108.83,39.36,122.39,86.67h-70.13c-9.59-17.2-27.45-31.76-53.92-31.76-30.76,0-66.82,22.82-66.82,71.12,0,51.27,36.39,73.43,67.15,73.43s51.93-15.55,58.55-39.36h-73.1v-49.95h145.21Z"/>
          <path class="cls-2" d="M655.55,421.77c75.42,0,129.34,58.88,129.34,127.02s-53.59,127.02-129.67,127.02-128.68-61.19-128.68-124.04c0-16.21,2.32-34.4,9.59-52.26,12.9-31.76,50.94-77.74,119.41-77.74ZM656.54,620.9c44.33,0,65.83-40.36,65.83-71.78s-21.5-72.44-66.49-72.44-66.82,37.05-66.82,71.45c0,37.71,25.47,72.77,67.48,72.77Z"/>
        </g>
        <g>
          <path class="cls-3" d="M340.22,703.33v4.48c6.51-8.59,13.62-14.89,21.35-18.91,7.73-4.02,16.61-6.03,26.64-6.03s18.48,2.12,26.16,6.37c7.68,4.25,13.42,10.26,17.22,18.03,2.44,4.52,4.02,9.4,4.74,14.64.72,5.24,1.08,11.93,1.08,20.06v68.86c0,7.41-1.69,13.01-5.08,16.81-3.39,3.8-7.79,5.69-13.21,5.69s-9.99-1.94-13.42-5.83c-3.43-3.88-5.15-9.44-5.15-16.67v-61.68c0-12.2-1.69-21.53-5.08-27.99-3.39-6.46-10.14-9.69-20.26-9.69-6.6,0-12.61,1.96-18.03,5.9-5.42,3.93-9.4,9.33-11.93,16.19-1.81,5.51-2.71,15.82-2.71,30.91v46.36c0,7.5-1.74,13.13-5.22,16.87-3.48,3.75-7.98,5.62-13.49,5.62s-9.72-1.94-13.15-5.83c-3.43-3.88-5.15-9.44-5.15-16.67v-106.95c0-7.05,1.53-12.31,4.61-15.79,3.07-3.48,7.27-5.22,12.61-5.22,3.25,0,6.19.77,8.81,2.3,2.62,1.54,4.72,3.84,6.3,6.92,1.58,3.07,2.37,6.82,2.37,11.25Z"/>
          <path class="cls-3" d="M553.98,753.4l-67.78,75.78h72.52c5.87,0,10.3,1.38,13.28,4.13,2.98,2.76,4.47,6.3,4.47,10.64s-1.47,7.54-4.41,10.17c-2.94,2.62-7.39,3.93-13.35,3.93h-100.31c-7.05,0-12.31-1.53-15.79-4.61-3.48-3.07-5.22-7.27-5.22-12.61,0-3.16,1.22-6.34,3.66-9.56,2.44-3.21,7.5-9.1,15.18-17.69,8.13-9.03,15.52-17.22,22.16-24.53,6.64-7.32,12.81-14.17,18.5-20.54,5.69-6.37,10.41-11.77,14.16-16.2,3.75-4.42,6.75-8.22,9.02-11.39h-55.03c-7.59,0-13.33-.68-17.22-2.04-3.89-1.35-5.83-4.92-5.83-10.71,0-4.25,1.47-7.64,4.41-10.16,2.93-2.53,7.12-3.8,12.54-3.8h84.99c7.86,0,13.9,1.15,18.09,3.45,4.2,2.31,6.3,6.44,6.3,12.4,0,1.99-.41,4.05-1.22,6.17-.81,2.12-1.72,3.86-2.71,5.22-.99,1.36-2.35,3.01-4.07,4.95-1.72,1.94-3.84,4.27-6.37,6.98Z"/>
          <path class="cls-3" d="M666.09,816.38l-32.67-53.68-20.06,18.98v29.41c0,7.14-1.88,12.63-5.63,16.47-3.75,3.84-8.06,5.76-12.94,5.76-5.69,0-10.17-1.89-13.42-5.69-3.25-3.8-4.88-9.4-4.88-16.81v-157.78c0-8.23,1.58-14.48,4.74-18.78,3.16-4.29,7.68-6.44,13.56-6.44s10.21,1.95,13.56,5.83c3.34,3.89,5.02,9.63,5.02,17.22v89.73l41.61-43.64c5.15-5.42,9.08-9.13,11.79-11.12,2.71-1.98,6.01-2.98,9.9-2.98,4.61,0,8.45,1.47,11.52,4.4,3.07,2.94,4.61,6.62,4.61,11.04,0,5.42-5.02,12.65-15.05,21.69l-19.65,18.03,37.95,59.64c2.8,4.43,4.81,7.8,6.03,10.1,1.22,2.31,1.83,4.5,1.83,6.57,0,5.88-1.61,10.51-4.81,13.9-3.21,3.39-7.43,5.08-12.67,5.08-4.52,0-8-1.22-10.44-3.66-2.44-2.44-5.74-6.86-9.9-13.28Z"/>
        </g>
      </g>
    </g>
  </g>
</svg>